# xmcd
#
# Track frame offsets: 
#        150
#        14617
#        34802
#        49617
#        66235
#        85092
#        97807
#        119782
#        132007
#        147605
#        165332
#        185110
#        198062
#        211202
#        224060
#        235642
#        248370
#
# Disc length: 3484 seconds
#
# Revision: 10
# Processed by: cddbd v1.5.2PL0 Copyright (c) Steve Scherf et al.
# Submitted via: ExactAudioCopy v1.3
#
DISCID=ef0d9a11
DTITLE=Nitty Gritty Dirt Band - Will the Circle Be Unbroken (30th Ann 
DTITLE=Edition)
DYEAR=2002
DGENRE=Country
TTITLE0=Grand Ole Opry Song--Jimmy Martin
TTITLE1=Keep On the Sunny Side--Mother Maybelle Carter, Doc Watson
TTITLE2=Nashville Blues--Earl Scruggs
TTITLE3=You Are My Flower--Jeff Hanna, Les Thomson, Gary Scruggs
TTITLE4=The Precious Jewel--Roy Acuff
TTITLE5=Dark as a Dungeon--Jeff hanna, Les Thomson, Jim Ibbotson
TTITLE6=Tennessee Stud--Doc Watson
TTITLE7=Black Mountain Rag--Doc Watson
TTITLE8=Wreck on the Highway--Roy Acuff
TTITLE9=The End of the World--Pete Kirby, Doc Watson
TTITLE10=I Saw the Light--Roy Acuff
TTITLE11=Sunny Side of the Mountain--Jimmy Martin
TTITLE12=Nine Pound Hammer--Merle Travis
TTITLE13=Losin' You (Might Be the Best Thing Yet)--Jimmy Martin
TTITLE14=Honky Tonkin'--Jimmy Fadden
TTITLE15=You Don't Know My Mind--Jimmy Martin
TTITLE16=My Walkin' Shoes--Jimmy Martin
EXTD=
EXTT0=
EXTT1=
EXTT2=
EXTT3=
EXTT4=
EXTT5=
EXTT6=
EXTT7=
EXTT8=
EXTT9=
EXTT10=
EXTT11=
EXTT12=
EXTT13=
EXTT14=
EXTT15=
EXTT16=
PLAYORDER=
